<svg xmlns="http://www.w3.org/2000/svg" width="30" height="31" viewBox="0 0 30 31" fill="none">
<g clip-path="url(#clip0_3_13)">
<path d="M25.7903 15.0448H24.5885M5.35968 15.0448C5.04095 15.0448 4.73526 14.9132 4.50988 14.679C4.2845 14.4447 4.15788 14.127 4.15788 13.7958V8.7995C4.15788 7.55043 4.87896 5.05231 7.76329 5.05231C10.6476 5.05231 11.3687 7.55043 11.3687 8.7995M5.35968 15.0448V17.5429C5.35968 18.9644 6.06034 21.5999 8.65863 22.3406M5.35968 15.0448H24.5885M24.5885 15.0448V17.5429C24.5885 18.9644 23.8879 21.5999 21.2896 22.3406M22.1849 25.0373L21.2896 22.3406M21.2896 22.3406C20.8449 22.468 20.3437 22.5392 19.7813 22.5392H10.1669C9.65783 22.5438 9.1505 22.477 8.65863 22.3406M7.76329 25.0373L8.65863 22.3406M11.3687 8.7995H13.7723M11.3687 8.7995H8.96509" stroke="#0D0D0D" stroke-width="1.2" stroke-linecap="round" stroke-linejoin="round"/>
</g>
<defs>
<clipPath id="clip0_3_13">
<rect width="28.8432" height="29.9775" fill="white" transform="translate(0.55249 0.0560303)"/>
</clipPath>
</defs>
</svg>