<svg xmlns="http://www.w3.org/2000/svg" width="25" height="22" viewBox="0 0 25 22" fill="none">
<path d="M5.92836 0.0523071H18.5473C19.3889 0.0522637 20.1988 0.385922 20.8118 0.985224C21.4249 1.58453 21.7948 2.40432 21.8462 3.27739L21.8522 3.48723V7.67659C22.5073 7.86987 23.089 8.2686 23.5179 8.81832C23.9468 9.36804 24.202 10.042 24.2486 10.748L24.2558 10.9816V20.3496C24.2558 20.5869 24.169 20.8154 24.0131 20.9889C23.8572 21.1623 23.6438 21.2677 23.4159 21.2839C23.1881 21.3001 22.9628 21.2258 22.7857 21.076C22.6085 20.9262 22.4927 20.7121 22.4615 20.477L22.4531 20.3496V17.5392H2.02251V20.3496C2.0225 20.576 1.94362 20.7947 1.80045 20.9653C1.65729 21.1359 1.45953 21.2469 1.24374 21.2776L1.12115 21.2864C0.903343 21.2864 0.692902 21.2044 0.528749 21.0556C0.364597 20.9068 0.257838 20.7013 0.228215 20.477L0.219803 20.3496V10.9816C0.219803 9.40904 1.23653 8.08379 2.62341 7.67534V3.48723C2.62336 2.61253 2.9444 1.77076 3.52102 1.13363C4.09765 0.496489 4.88643 0.111989 5.72646 0.0585526L5.92836 0.0523071ZM20.9509 9.42029H3.52476C3.15285 9.42011 2.7941 9.56332 2.51793 9.8222C2.24176 10.0811 2.0678 10.4372 2.02972 10.8217L2.02251 10.9816V15.6656H22.4531V10.9816C22.453 10.5953 22.3151 10.2227 22.066 9.93598C21.817 9.64921 21.4745 9.46859 21.1047 9.42903L20.9509 9.42029ZM18.5473 1.9259H5.92836C5.55645 1.92573 5.1977 2.06894 4.92153 2.32782C4.64536 2.5867 4.4714 2.94285 4.43332 3.32735L4.42611 3.48723V7.54669H6.22881C6.22881 7.21542 6.35543 6.89771 6.58081 6.66347C6.80619 6.42922 7.11188 6.29763 7.43061 6.29763H9.83422C10.1286 6.29767 10.4127 6.40999 10.6327 6.61328C10.8526 6.81658 10.9932 7.09671 11.0276 7.40055L11.036 7.54669H13.4396C13.4396 7.21542 13.5662 6.89771 13.7916 6.66347C14.017 6.42922 14.3227 6.29763 14.6414 6.29763H17.045C17.3394 6.29767 17.6235 6.40999 17.8435 6.61328C18.0634 6.81658 18.204 7.09671 18.2384 7.40055L18.2468 7.54669H20.0495V3.48723C20.0497 3.1007 19.9119 2.72784 19.6628 2.44081C19.4137 2.15378 19.0711 1.97298 18.7011 1.9334L18.5473 1.9259Z" fill="#0D0D0D"/>
</svg>