<svg width="14" height="12" viewBox="0 0 14 12" fill="none" xmlns="http://www.w3.org/2000/svg">
<path d="M9.8474 1.19024C10.6284 1.23341 11.3608 1.58354 11.8848 2.16431C12.4088 2.74508 12.682 3.50942 12.6449 4.29076C12.6449 6.11614 11.0691 7.23739 9.55684 8.58206C8.06422 9.91485 7.26027 10.6433 7.00001 10.8115C6.71657 10.6279 5.72664 9.72827 4.44317 8.58206C2.9244 7.23204 1.35512 6.1001 1.35512 4.29076C1.31803 3.50942 1.59125 2.74508 2.11526 2.16431C2.63926 1.58354 3.37158 1.23341 4.15261 1.19024C4.58527 1.17712 5.01393 1.2765 5.39669 1.47866C5.77944 1.68082 6.10319 1.97883 6.33629 2.34357C6.83541 3.04176 6.9186 3.39115 7.00179 3.39115C7.08498 3.39115 7.16698 3.04176 7.66135 2.34179C7.89312 1.97536 8.21699 1.67617 8.6006 1.47409C8.98421 1.27202 9.41413 1.17414 9.8474 1.19024ZM9.8474 0.00183822C9.30783 -0.0154371 8.77131 0.0892347 8.2778 0.308059C7.78429 0.526883 7.3465 0.854222 6.99704 1.2657C6.64787 0.85542 6.21098 0.528837 5.71865 0.31008C5.22631 0.0913224 4.69112 -0.0140191 4.15261 0.00183822C3.05624 0.0447108 2.02144 0.519969 1.27451 1.32369C0.527582 2.12741 0.129288 3.19419 0.166726 4.29076C0.166726 6.43582 1.68193 7.75316 3.14663 9.02652C3.31479 9.1727 3.48473 9.32006 3.65348 9.47039L4.26372 10.0159C4.92925 10.6491 5.62697 11.2477 6.35411 11.8092C6.5465 11.9337 6.77081 12 7.00001 12C7.2292 12 7.45351 11.9337 7.6459 11.8092C8.39619 11.2306 9.11538 10.6127 9.80046 9.95823L10.3483 9.46861C10.5224 9.31412 10.6989 9.16022 10.8742 9.0087C12.261 7.80545 13.8333 6.44176 13.8333 4.29076C13.8707 3.19419 13.4724 2.12741 12.7255 1.32369C11.9786 0.519969 10.9438 0.0447108 9.8474 0.00183822Z" fill="#FF0000"/>
</svg>
