<?xml version="1.0" encoding="utf-8"?>
<!-- Generator: Adobe Illustrator 26.0.0, SVG Export Plug-In . SVG Version: 6.00 Build 0)  -->
<svg version="1.1" id="Layer_1" xmlns="http://www.w3.org/2000/svg" xmlns:xlink="http://www.w3.org/1999/xlink" x="0px" y="0px"
	 viewBox="0 0 532 129.9" style="enable-background:new 0 0 532 129.9;" xml:space="preserve">
<style type="text/css">
	.st0{fill:#EA223C;}
	.st1{fill:#010101;}
</style>
<g>
	<g>
		<g>
			<g>
				<path class="st0" d="M103.9,29.6l0-28.1L62.5,39.6L21.1,1.5l0,28.1L1.7,12.1v15.7v102.1H35V61l27.5,24.9v0l0,0l0,0v0L90,61v68.9
					h33.2V27.8V12.1L103.9,29.6z M15.7,116V43.4l5.4,4.9l0,67.6H15.7z M90,42.2L62.5,67.1L35,42.2v-9l27.5,25.3v0l0,0l0,0l0,0l0,0v0
					L90,33.2V42.2z M109.3,116h-5.4l0-67.6l5.4-4.9V116z"/>
			</g>
		</g>
	</g>
	<g>
		<g>
			<g>
				<path class="st1" d="M158.2,62.8v36h-10.9V36.5L180,69.2l32.8-32.8v62.4h-10.9v-36L180,84.7L158.2,62.8z"/>
				<path class="st1" d="M298,87.9v10.9h-11.4V38.1H298v33.7l33.7-33.7h16.1l-30.4,30.4l30.4,30.4h-16.1l-22.3-22.3L298,87.9z"/>
				<path class="st1" d="M383.3,70.8v28H372v-28l-32.7-32.7h16.1l22.3,22.3L400,38.1H416L383.3,70.8z"/>
				<path class="st1" d="M427,87.4h41.7v11.4h-53.1V38.1h53.1v11.4H427v13.3h37.9l-3.8,11.4H427V87.4z"/>
				<path class="st1" d="M487.7,87.4h41.7v11.4h-53.1V38.1h53.1v11.4h-41.7v13.3h37.9l-3.8,11.4h-34.1V87.4z"/>
			</g>
		</g>
		<path class="st1" d="M273.1,98.8h11.7l-35-60.7l-35,60.7h11.7l8.1-14h30.6L273.1,98.8z M240.3,74.7l9.4-16.4l9.4,16.4H240.3z"/>
	</g>
</g>
</svg>
