<svg width="28" height="29" viewBox="0 0 28 29" fill="none" xmlns="http://www.w3.org/2000/svg">
    <path d="M27.3965 17.4365C27.0611 17.1019 26.6068 16.9141 26.1332 16.9141C25.6595 16.9141 25.2052 17.1019 24.8699 17.4365L20.7971 21.5093C20.3005 22.0066 19.7397 22.4354 19.1297 22.7844C19.1319 22.7454 19.1332 22.7061 19.1332 22.6665C19.1326 22.1097 18.9111 21.5759 18.5174 21.1822C18.1237 20.7886 17.59 20.5671 17.0332 20.5665H11.3932L10.5966 19.7698C10.012 19.1868 9.25231 18.8117 8.43406 18.702C7.6158 18.5923 6.78414 18.754 6.06662 19.1624V18.6998C6.06662 18.5761 6.01746 18.4574 5.92994 18.3698C5.84242 18.2823 5.72373 18.2332 5.59996 18.2332H4.19997V17.7665C4.19997 17.6427 4.1508 17.524 4.06329 17.4365C3.97577 17.349 3.85707 17.2998 3.73331 17.2998H0V18.2332H3.26664V27.5664H0V28.4998H3.73331C3.85707 28.4998 3.97577 28.4506 4.06329 28.3631C4.1508 28.2756 4.19997 28.1569 4.19997 28.0331V27.0998H5.59996C5.72373 27.0998 5.84242 27.0506 5.92994 26.9631C6.01746 26.8756 6.06662 26.7569 6.06662 26.6331V25.4104C8.29492 27.456 11.2272 28.5618 14.2513 28.4971C17.2754 28.4324 20.1577 27.2021 22.2964 25.0632L27.3963 19.9633C27.5623 19.7975 27.694 19.6005 27.7838 19.3837C27.8736 19.167 27.9199 18.9346 27.9199 18.6999C27.9199 18.4653 27.8737 18.2329 27.7839 18.0161C27.6941 17.7993 27.5624 17.6024 27.3965 17.4365ZM5.1333 26.1664H4.19997V19.1665H5.1333V26.1664ZM26.7365 19.3031L21.6365 24.4032C20.6336 25.406 19.4431 26.2016 18.1328 26.7443C16.8225 27.2871 15.4182 27.5664 13.9999 27.5664C12.5817 27.5664 11.1773 27.2871 9.86703 26.7443C8.55674 26.2016 7.36619 25.406 6.36336 24.4032L6.06662 24.1065V20.3028C6.60773 19.8297 7.30828 19.5796 8.02667 19.6032C8.74506 19.6268 9.42771 19.9222 9.93662 20.4298L10.8699 21.3631C10.9575 21.4506 11.0762 21.4998 11.1999 21.4998H17.0332C17.3426 21.4998 17.6394 21.6227 17.8582 21.8415C18.077 22.0603 18.1999 22.357 18.1999 22.6665C18.1999 22.9759 18.077 23.2726 17.8582 23.4914C17.6394 23.7102 17.3426 23.8331 17.0332 23.8331H12.1332V24.7664H17.0332C17.3219 24.7665 17.6074 24.7069 17.8719 24.5914C18.1364 24.4759 18.3742 24.307 18.5704 24.0952C19.6506 23.6507 20.6318 22.9961 21.457 22.1693L25.5298 18.0965C25.609 18.0173 25.7031 17.9544 25.8066 17.9115C25.9101 17.8687 26.0211 17.8466 26.1331 17.8466C26.2452 17.8466 26.3561 17.8686 26.4597 17.9115C26.5632 17.9544 26.6572 18.0172 26.7365 18.0965C26.8157 18.1757 26.8786 18.2698 26.9214 18.3733C26.9643 18.4768 26.9864 18.5878 26.9864 18.6998C26.9864 18.8119 26.9643 18.9228 26.9215 19.0263C26.8786 19.1299 26.8157 19.2239 26.7365 19.3031Z" fill="black"></path>
    <path d="M8.40012 7.03329H16.8001V19.6332H17.7334V7.03329H22.8667V17.7665H23.8V6.56662C23.8 6.44286 23.7508 6.32416 23.6633 6.23665C23.5758 6.14913 23.4571 6.09996 23.3334 6.09996H21V4.69997C21 4.5762 20.9509 4.45751 20.8634 4.36999C20.7758 4.28248 20.6571 4.23331 20.5334 4.23331H18.6667V2.83332C18.6667 2.70955 18.6176 2.59085 18.53 2.50334C18.4425 2.41582 18.3238 2.36665 18.2001 2.36665H16.8001V0.966663C16.8001 0.842897 16.7509 0.7242 16.6634 0.636684C16.5759 0.549168 16.4572 0.500001 16.3334 0.5H14.4667C14.343 0.500001 14.2243 0.549168 14.1368 0.636684C14.0493 0.7242 14.0001 0.842897 14.0001 0.966663V2.36665H12.6001C12.4763 2.36665 12.3576 2.41582 12.2701 2.50334C12.1826 2.59085 12.1334 2.70955 12.1334 2.83332V4.23331H10.7334C10.6097 4.23331 10.491 4.28248 10.4035 4.36999C10.3159 4.45751 10.2668 4.5762 10.2668 4.69997V6.09996H7.93346C7.80969 6.09996 7.691 6.14913 7.60348 6.23665C7.51596 6.32416 7.4668 6.44286 7.4668 6.56662V17.7665H8.40012V7.03329ZM20.0667 6.09996H16.8001V5.16663H20.0667V6.09996ZM14.9334 1.43333H15.8667V2.36665H14.9334V1.43333ZM13.0668 3.29998H17.7334V4.23331H13.0668V3.29998ZM11.2001 5.16663H15.8667V6.09996H11.2001V5.16663Z" fill="black"></path>
    <path d="M12.134 8.43346C12.134 8.30969 12.0848 8.191 11.9973 8.10348C11.9098 8.01596 11.7911 7.9668 11.6673 7.9668H9.80065C9.67688 7.9668 9.55818 8.01596 9.47067 8.10348C9.38315 8.191 9.33399 8.30969 9.33398 8.43346V10.3001C9.33399 10.4239 9.38315 10.5426 9.47067 10.6301C9.55818 10.7176 9.67688 10.7668 9.80065 10.7668H11.6673C11.7911 10.7668 11.9098 10.7176 11.9973 10.6301C12.0848 10.5426 12.134 10.4239 12.134 10.3001V8.43346ZM11.2006 9.83345H10.2673V8.90012H11.2006V9.83345Z" fill="black"></path>
    <path d="M15.8664 8.43346C15.8664 8.30969 15.8172 8.191 15.7297 8.10348C15.6422 8.01596 15.5235 7.9668 15.3997 7.9668H13.5331C13.4093 7.9668 13.2906 8.01596 13.2031 8.10348C13.1156 8.191 13.0664 8.30969 13.0664 8.43346V10.3001C13.0664 10.4239 13.1156 10.5426 13.2031 10.6301C13.2906 10.7176 13.4093 10.7668 13.5331 10.7668H15.3997C15.5235 10.7668 15.6422 10.7176 15.7297 10.6301C15.8172 10.5426 15.8664 10.4239 15.8664 10.3001V8.43346ZM14.9331 9.83345H13.9997V8.90012H14.9331V9.83345Z" fill="black"></path>
    <path d="M12.134 12.1664C12.134 12.0426 12.0848 11.9239 11.9973 11.8364C11.9098 11.7489 11.7911 11.6997 11.6673 11.6997H9.80065C9.67688 11.6997 9.55818 11.7489 9.47067 11.8364C9.38315 11.9239 9.33399 12.0426 9.33398 12.1664V14.033C9.33399 14.1568 9.38315 14.2755 9.47067 14.363C9.55818 14.4505 9.67688 14.4997 9.80065 14.4997H11.6673C11.7911 14.4997 11.9098 14.4505 11.9973 14.363C12.0848 14.2755 12.134 14.1568 12.134 14.033V12.1664ZM11.2006 13.5664H10.2673V12.633H11.2006V13.5664Z" fill="black"></path>
    <path d="M15.8664 12.1664C15.8664 12.0426 15.8172 11.9239 15.7297 11.8364C15.6422 11.7489 15.5235 11.6997 15.3997 11.6997H13.5331C13.4093 11.6997 13.2906 11.7489 13.2031 11.8364C13.1156 11.9239 13.0664 12.0426 13.0664 12.1664V14.033C13.0664 14.1568 13.1156 14.2755 13.2031 14.363C13.2906 14.4505 13.4093 14.4997 13.5331 14.4997H15.3997C15.5235 14.4997 15.6422 14.4505 15.7297 14.363C15.8172 14.2755 15.8664 14.1568 15.8664 14.033V12.1664ZM14.9331 13.5664H13.9997V12.633H14.9331V13.5664Z" fill="black"></path>
    <path d="M11.6673 15.4331H9.80065C9.67688 15.4331 9.55818 15.4823 9.47067 15.5698C9.38315 15.6573 9.33399 15.776 9.33398 15.8998V17.7664C9.33399 17.8902 9.38315 18.0089 9.47067 18.0964C9.55818 18.1839 9.67688 18.2331 9.80065 18.2331H11.6673C11.7911 18.2331 11.9098 18.1839 11.9973 18.0964C12.0848 18.0089 12.134 17.8902 12.134 17.7664V15.8998C12.134 15.776 12.0848 15.6573 11.9973 15.5698C11.9098 15.4823 11.7911 15.4331 11.6673 15.4331ZM11.2006 17.2998H10.2673V16.3664H11.2006V17.2998Z" fill="black"></path>
    <path d="M15.3997 15.4331H13.5331C13.4093 15.4331 13.2906 15.4823 13.2031 15.5698C13.1156 15.6573 13.0664 15.776 13.0664 15.8998V17.7664C13.0664 17.8902 13.1156 18.0089 13.2031 18.0964C13.2906 18.1839 13.4093 18.2331 13.5331 18.2331H15.3997C15.5235 18.2331 15.6422 18.1839 15.7297 18.0964C15.8172 18.0089 15.8664 17.8902 15.8664 17.7664V15.8998C15.8664 15.776 15.8172 15.6573 15.7297 15.5698C15.6422 15.4823 15.5235 15.4331 15.3997 15.4331ZM14.9331 17.2998H13.9997V16.3664H14.9331V17.2998Z" fill="black"></path>
    <path d="M21.466 8.43346C21.466 8.30969 21.4168 8.191 21.3293 8.10348C21.2418 8.01596 21.1231 7.9668 20.9993 7.9668H19.1327C19.0089 7.9668 18.8902 8.01596 18.8027 8.10348C18.7152 8.191 18.666 8.30969 18.666 8.43346V10.3001C18.666 10.4239 18.7152 10.5426 18.8027 10.6301C18.8902 10.7176 19.0089 10.7668 19.1327 10.7668H20.9993C21.1231 10.7668 21.2418 10.7176 21.3293 10.6301C21.4168 10.5426 21.466 10.4239 21.466 10.3001V8.43346ZM20.5327 9.83345H19.5993V8.90012H20.5327V9.83345Z" fill="black"></path>
    <path d="M21.466 12.1664C21.466 12.0426 21.4168 11.9239 21.3293 11.8364C21.2418 11.7489 21.1231 11.6997 20.9993 11.6997H19.1327C19.0089 11.6997 18.8902 11.7489 18.8027 11.8364C18.7152 11.9239 18.666 12.0426 18.666 12.1664V14.033C18.666 14.1568 18.7152 14.2755 18.8027 14.363C18.8902 14.4505 19.0089 14.4997 19.1327 14.4997H20.9993C21.1231 14.4997 21.2418 14.4505 21.3293 14.363C21.4168 14.2755 21.466 14.1568 21.466 14.033V12.1664ZM20.5327 13.5664H19.5993V12.633H20.5327V13.5664Z" fill="black"></path>
    <path d="M20.9993 15.4331H19.1327C19.0089 15.4331 18.8902 15.4823 18.8027 15.5698C18.7152 15.6573 18.666 15.776 18.666 15.8998V17.7664C18.666 17.8902 18.7152 18.0089 18.8027 18.0964C18.8902 18.1839 19.0089 18.2331 19.1327 18.2331H20.9993C21.1231 18.2331 21.2418 18.1839 21.3293 18.0964C21.4168 18.0089 21.466 17.8902 21.466 17.7664V15.8998C21.466 15.776 21.4168 15.6573 21.3293 15.5698C21.2418 15.4823 21.1231 15.4331 20.9993 15.4331ZM20.5327 17.2998H19.5993V16.3664H20.5327V17.2998Z" fill="black"></path>
</svg>